# AST/ASF file generated using VICON BodyLanguage
# -----------------------------------------------
:version 1.10
:name VICON
:units
  mass 1.0
  length 0.45
  angle deg
:documentation
   .ast/.asf automatically generated from VICON data using
   VICON BodyBuilder and BodyLanguage model FoxedUp or BRILLIANT.MOD
:root
   order TX TY TZ RX RY RZ
   axis XYZ
   position 0 0 0  
   orientation 0 0 0 
:bonedata
  begin
     id 1 
     name lhipjoint
     direction 0.660183 -0.676772 0.325788 
     length 2.75133 
     axis 0 0 0  XYZ
  end
  begin
     id 2 
     name lfemur
     direction 0.34202 -0.939693 0  
     length 7.70317  
     axis 0 0 20  XYZ
    dof rx ry rz
    limits (-160.0 20.0)
           (-70.0 70.0)
           (-60.0 70.0)
  end
  begin
     id 3 
     name ltibia
     direction 0.342105 -0.939662 0   
     length 7.18701   
     axis 0 0 20   XYZ
    dof rx
    limits (-10.0 170.0)
  end
  begin
     id 4 
     name lfoot
     direction 0.14163 -0.389126 0.910232   
     length 2.41719   
     axis -90 7.62852e-016 20   XYZ
    dof rx rz
    limits (-45.0 90.0)
           (-70.0 20.0)
  end
  begin
     id 5 
     name ltoes
     direction 1.53533e-011 -4.21926e-011 1   
     length 1.18611   
     axis -90 7.62852e-016 20   XYZ
    dof rx
    limits (-90.0 20.0)
  end
  begin
     id 6 
     name rhipjoint
     direction -0.6658 -0.67229 0.323631   
     length 2.76968  
     axis 0 0 0  XYZ 
  end
  begin
     id 7 
     name rfemur
     direction -0.34202 -0.939693 0   
     length 7.92547   
     axis 0 0 -20   XYZ
    dof rx ry rz
    limits (-160.0 20.0)
           (-70.0 70.0)
           (-70.0 60.0)
  end
  begin
     id 8 
     name rtibia
     direction -0.342022 -0.939692 0   
     length 7.22641   
     axis 0 0 -20   XYZ
    dof rx
    limits (-10.0 170.0)
 end
 begin
     id 9 
     name rfoot
     direction -0.105675 -0.29034 0.951071   
     length 2.48149  
     axis -90 -7.62852e-016 -20   XYZ
    dof rx rz
    limits (-45.0 90.0)
           (-20.0 70.0)
  end
  begin
     id 10 
     name rtoes
     direction -1.5349e-011 -4.21859e-011 1   
     length 1.23343   
     axis -90 -7.62852e-016 -20   XYZ
    dof rx
    limits (-90.0 20.0)
  end
  begin
     id 11 
     name lowerback
     direction 0.0104173 0.993624 -0.112266   
     length 2.00527   
     axis 0 0 0   XYZ
    dof rx ry rz
    limits (-20.0 45.0)
           (-30.0 30.0)
           (-30.0 30.0)
  end
  begin
     id 12 
     name upperback
     direction 0.00733149 0.999856 -0.0152913   
     length 2.01385   
     axis 0 0 0   XYZ
    dof rx ry rz
    limits (-20.0 45.0)
           (-30.0 30.0)
           (-30.0 30.0)
  end
  begin
     id 13 
     name thorax
     direction 0.0026304 0.999318 0.036841   
     length 2.03734   
     axis 0 0 0   XYZ
    dof rx ry rz
    limits (-20.0 45.0)
           (-30.0 30.0)
           (-30.0 30.0)
  end
  begin
     id 14 
     name lowerneck
     direction 0.0293154 0.998757 0.0403082   
     length 1.65303   
     axis 0 0 0   XYZ
    dof rx ry rz
    limits (-20.0 45.0)
           (-30.0 30.0)
           (-30.0 30.0)
  end
  begin
     id 15 
     name upperneck
     direction -0.0376619 0.998184 -0.0470083   
     length 1.60926   
     axis 0 0 0   XYZ
    dof rx ry rz
    limits (-20.0 45.0)
           (-30.0 30.0)
           (-30.0 30.0)
  end
  begin
     id 16
     name head
     direction -0.0170133 0.999635 -0.0209778  
     length 1.73625  
     axis 0 0 0   XYZ
    dof rx ry rz
    limits (-20.0 45.0)
           (-30.0 30.0)
           (-30.0 30.0)
  end
  begin
     id 17 
     name lclavicle
     direction 0.919857 0.39181 -0.0186333  
     length 3.75313  
     axis 0 0 0   XYZ
    dof ry rz
    limits (-20.0 10.0)
           (0.0 20.0)
  end
  begin
     id 18 
     name lhumerus
     direction 1 -4.48988e-011 1.44029e-027   
     length 5.49313   
     axis 180 -30 -90   XYZ
    dof rx ry rz
    limits (-60.0 90.0)
           (-90.0 90.0)
           (-90.0 90.0)
  end
  begin
     id 19
     name lradius
     direction 1 -4.48924e-011 7.46281e-027   
     length 3.29037   
     axis 180 -30 -90   XYZ
    dof rx
    limits (-10.0 170.0)
  end
  begin
     id 20
     name lwrist
     direction 1 -4.48955e-011 2.19879e-026   
     length 1.64519   
     axis -1.34358e-014 90 90   XYZ
    dof ry
    limits (-180.0 0.0)
 end
  begin
     id 21 
     name lhand
     direction 1 -4.48978e-011 4.39747e-026   
     length 0.729656   
     axis -2.80598e-014 90 90   XYZ
    dof rx rz
    limits (-90.0 90.0)
           (-45.0 45.0)
  end
  begin
     id 22 
     name lfingers
     direction 1 -4.49071e-011 8.79411e-026   
     length 0.588268   
     axis -5.61193e-014 90 90   XYZ
    dof rx
    limits (0.0 90.0)
  end
  begin
     id 23
     name lthumb
     direction 0.707107 -6.34817e-011 0.707107   
     length 0.844638   
     axis -90 45 -9.86923e-015   XYZ
    dof rx rz
    limits (-45.0 45.0)
           (-45.0 45.0)
  end
  begin
     id 24 
     name rclavicle
     direction -0.919898 0.388279 0.0550233   
     length 3.7171  
     axis 0 0 0   XYZ 
    dof ry rz
    limits (-10.0 20.0)
           (-20.0 0.0)
  end
  begin
     id 25 
     name rhumerus
     direction -1 -4.48968e-011 9.98372e-028  
     length 5.23684   
     axis 180 30 90   XYZ
    dof rx ry rz
    limits (-90.0 60.0)
           (-90.0 90.0)
           (-90.0 90.0)
  end
  begin
     id 26 
     name rradius
     direction -1 -4.48956e-011 1.01023e-026   
     length 3.38251   
     axis 180 30 90   XYZ
    dof rx
    limits (-10.0 170.0)
  end
  begin
     id 27 
     name rwrist
     direction -1 -4.4892e-011 2.19886e-026   
     length 1.69126   
     axis -1.34358e-014 -90 -90   XYZ
    dof ry
    limits (-180.0 0.0)
  end
  begin
     id 28
     name rhand
     direction -1 -4.49024e-011 4.39727e-026   
     length 0.691454   
     axis -2.80598e-014 -90 -90   XYZ
    dof rx rz
    limits (-90.0 90.0)
           (-45.0 45.0)
  end
  begin
     id 29
     name rfingers
     direction -1 -4.49097e-011 8.79388e-026   
     length 0.557468   
     axis -5.61193e-014 -90 -90   XYZ
    dof rx
    limits (0.0 90.0)
  end
  begin
     id 30
     name rthumb
     direction -0.707107 -6.34938e-011 0.707107   
     length 0.800416   
     axis -90 -45 9.86923e-015   XYZ
    dof rx rz
    limits (-45.0 45.0)
           (-45.0 45.0)
  end
:hierarchy
  begin
    root lhipjoint rhipjoint lowerback
    lhipjoint lfemur
    lfemur ltibia
    ltibia lfoot
    lfoot ltoes
    rhipjoint rfemur
    rfemur rtibia
    rtibia rfoot
    rfoot rtoes
    lowerback upperback
    upperback thorax
    thorax lowerneck lclavicle rclavicle
    lowerneck upperneck
    upperneck head
    lclavicle lhumerus
    lhumerus lradius
    lradius lwrist
    lwrist lhand lthumb
    lhand lfingers
    rclavicle rhumerus
    rhumerus rradius
    rradius rwrist
    rwrist rhand rthumb
    rhand rfingers
  end

#!OML:ASF H:\BabyWalks\Project 1\Capture day 1\Session 1\baby.ASF
:FULLY-SPECIFIED
:DEGREES
359
root -18.5292 10.6857 -0.370519 -167.47 70.5858 -199.011
lowerback 54.4022 -4.86533 5.40113
upperback 11.0393 0.30068 1.47091
thorax -8.61867 1.12256 -1.10098
lowerneck -8.42172 -4.12695 1.23723
upperneck -20.6099 -5.41203 -3.17305
head -4.98212 -2.1143 -1.14746
rclavicle 1.59028e-015 6.05299e-014
rhumerus 46.3029 -6.33028 -20.2626
rradius 41.2674
rwrist 12.2096
rhand -37.2444 -6.93247
rfingers 7.12502
rthumb -10.3104 -36.6597
lclavicle 1.59028e-015 6.05299e-014
lhumerus 58.3953 -25.1868 23.8776
lradius 44.9386
lwrist -18.4911
lhand -29.2235 2.78324
lfingers 7.12502
lthumb -2.56752 32.7475
rfemur -99.152 -36.384 36.0945
rtibia 134.027
rfoot -40.989 15.344
rtoes -25.7775
lfemur -105.862 29.912 -38.4937
ltibia 122.297
lfoot -31.1405 -49.6756
ltoes 22.3652
360
root -18.4328 10.6009 -0.344039 -168.539 70.277 -199.631
lowerback 54.4562 -4.80927 5.45427
upperback 11.0651 0.433517 1.51825
thorax -8.58944 1.193 -1.13096
lowerneck -8.48515 -4.33043 1.39277
upperneck -20.6752 -5.71108 -3.27191
head -5.00773 -2.26334 -1.19953
rclavicle -4.77083e-015 -4.68138e-014
rhumerus 46.3454 -7.10142 -21.2818
rradius 40.3974
rwrist 13.0195
rhand -37.2689 -7.33854
rfingers 7.12502
rthumb -10.334 -37.0646
lclavicle -4.77083e-015 -4.68138e-014
lhumerus 58.579 -26.0076 23.7135
lradius 45.2058
lwrist -18.2456
lhand -29.3867 2.73964
lfingers 7.12502
lthumb -2.72522 32.702
rfemur -98.628 -37.6608 35.9317
rtibia 135.054
rfoot -41.3693 15.7345
rtoes -26.3132
lfemur -105.495 30.7047 -38.3357
ltibia 123.075
lfoot -31.2341 -50.3213
ltoes 22.034
361
root -18.3342 10.518 -0.317101 -169.571 69.9485 -200.233
lowerback 54.4873 -4.75781 5.51135
upperback 11.0928 0.561075 1.5686
thorax -8.55615 1.26094 -1.15733
lowerneck -8.54108 -4.53819 1.54991
upperneck -20.7453 -6.01443 -3.35163
head -5.03657 -2.41578 -1.24542
rclavicle -1.03368e-013 -1.30552e-013
rhumerus 46.414 -7.81181 -22.325
rradius 39.4764
rwrist 13.8755
rhand -37.3035 -7.71909
rfingers 7.12502
rthumb -10.3674 -37.4435
lclavicle -1.03368e-013 -1.30552e-013
lhumerus 58.78 -26.835 23.5312
lradius 45.4623
lwrist -18.0178
lhand -29.5325 2.71449
lfingers 7.12502
lthumb -2.86597 32.675
rfemur -98.0799 -39.0055 35.7545
rtibia 136.045
rfoot -41.754 16.1757
rtoes -26.838
lfemur -105.11 31.5004 -38.1626
ltibia 123.818
lfoot -31.2993 -50.9982
ltoes 21.7902
362
root -18.2334 10.4374 -0.290291 -170.572 69.5872 -200.829
lowerback 54.4823 -4.7256 5.58495
upperback 11.1236 0.671625 1.61926
thorax -8.51594 1.32152 -1.18367
lowerneck -8.58868 -4.74913 1.7021
upperneck -20.8197 -6.31984 -3.40954
head -5.0682 -2.57018 -1.2832
rclavicle 2.06736e-014 -3.99557e-014
rhumerus 46.4951 -8.42997 -23.3455
rradius 38.502
rwrist 14.8115
rhand -37.3332 -8.11465
rfingers 7.12502
rthumb -10.3961 -37.8376
lclavicle 2.06736e-014 -3.99557e-014
lhumerus 58.9968 -27.6644 23.3389
lradius 45.6984
lwrist -17.8162
lhand -29.6728 2.70884
lfingers 7.12502
lthumb -3.00144 32.6675
rfemur -97.5132 -40.4447 35.5563
rtibia 136.997
rfoot -42.1495 16.6797
rtoes -27.3607
lfemur -104.701 32.2717 -37.9726
ltibia 124.523
lfoot -31.3197 -51.7018
ltoes 21.6532
363
root -18.1302 10.3594 -0.262992 -171.54 69.2069 -201.43
lowerback 54.4362 -4.69693 5.65737
upperback 11.1587 0.772499 1.67258
thorax -8.46762 1.37743 -1.20283
lowerneck -8.63056 -4.95957 1.8505
upperneck -20.9017 -6.62286 -3.45215
head -5.10325 -2.72379 -1.31521
rclavicle 7.4743e-014 -5.66536e-015
rhumerus 46.583 -8.94915 -24.3387
rradius 37.4736
rwrist 15.825
rhand -37.2748 -8.45001
rfingers 7.12502
rthumb -10.3397 -38.1758
lclavicle 7.4743e-014 -5.66536e-015
lhumerus 59.2215 -28.4898 23.1521
lradius 45.91
lwrist -17.6527
lhand -29.8199 2.69696
lfingers 7.12502
lthumb -3.14356 32.6535
rfemur -96.9286 -41.9404 35.3214
rtibia 137.905
rfoot -42.5425 17.2441
rtoes -27.8872
lfemur -104.274 33.0274 -37.7661
ltibia 125.186
lfoot -31.294 -52.4341
ltoes 21.6142
